<svg width="1440" height="400" viewBox="0 0 1440 400" fill="none" xmlns="http://www.w3.org/2000/svg">
<g id="Heureka-Hero" clip-path="url(#clip0)">
<rect width="1440" height="400" fill="white"/>
<g id="wave2">
<path id="Vector" d="M1393.1 283.016C1394.05 285.138 1418.6 234.931 1418.6 234.931C1418.6 234.931 1366.85 166.529 1293.89 205.358C1254.32 226.443 1182.36 232.357 1133.23 210.46C1133.23 210.46 1072.95 186.982 1038.34 238.272C1003.74 289.562 889.32 169.418 779.188 238.272C672.485 304.959 614.148 161.698 522.469 224.456C511.099 232.267 474.058 259.447 461.199 264.459C404.306 286.628 326.839 297.96 158.821 193.483C-61.4437 56.4983 22.0239 390.698 27.3478 396.026C32.6717 401.354 1285.09 396.026 1285.09 396.026L1393.1 283.016Z" fill="#A4E8E0"/>
</g>
<g id="boat1">
<g id="Group">
<path id="Vector_2" d="M431.941 268.558L350.834 251.44L382.615 306.433L479.973 308.071L513.583 254.181L431.941 268.558Z" fill="#CCCCCC"/>
<path id="Vector_3" d="M432.141 241.062L397.964 276.079L435.303 296.119L461.603 275.015L432.141 241.062Z" fill="#EAEAEA"/>
<path id="Vector_4" d="M427.852 292.649L432.348 244.409L435.227 292.771L427.852 292.649Z" fill="#C0C0C0"/>
<path id="Vector_5" d="M479.973 308.071L382.614 306.433L383.084 278.317L480.449 279.962L479.973 308.071Z" fill="#D9D9D9"/>
<path id="Vector_6" d="M350.834 251.44L431.767 279.143L382.615 306.433L350.834 251.44Z" fill="white"/>
<path id="Vector_7" d="M513.582 254.181L431.767 279.143L479.972 308.071L513.582 254.181Z" fill="white"/>
</g>
</g>
<g id="wave1">
<path id="Vector_8" d="M30.2367 338.533C29.2855 340.659 4.64551 290.341 4.64551 290.341C4.64551 290.341 56.5979 221.788 129.838 260.703C169.561 281.834 241.806 287.762 291.131 265.816C291.131 265.816 351.644 242.286 386.384 293.69C421.125 345.094 535.991 224.684 646.554 293.69C753.674 360.524 812.24 216.946 904.277 279.843C915.691 287.672 952.878 314.912 965.787 319.935C1022.9 342.153 1100.67 353.51 1269.35 248.802C1490.47 111.513 1406.68 446.454 1401.33 451.793C1395.99 457.133 138.671 451.793 138.671 451.793L30.2367 338.533Z" fill="#4CD7D0"/>
</g>
</g>
<defs>
<clipPath id="clip0">
<rect width="1440" height="400" fill="white"/>
</clipPath>
</defs>
</svg>
